<svg width="71" height="50" viewBox="0 0 71 50" fill="none" xmlns="http://www.w3.org/2000/svg">
<rect x="0.265869" y="0.617981" width="70.6107" height="48.5449" rx="24.2724" fill="#C09D5E"/>
<path d="M23.0948 14.4935H33.4917C34.0432 14.4935 34.5721 14.7125 34.9621 15.1025C35.352 15.4925 35.5711 16.0214 35.5711 16.5729C35.5711 17.1244 35.352 17.6533 34.9621 18.0432C34.5721 18.4332 34.0432 18.6523 33.4917 18.6523H23.0948C22.5433 18.6523 22.0144 18.4332 21.6244 18.0432C21.2345 17.6533 21.0154 17.1244 21.0154 16.5729C21.0154 16.0214 21.2345 15.4925 21.6244 15.1025C22.0144 14.7125 22.5433 14.4935 23.0948 14.4935ZM37.6505 31.1286H48.0475C48.599 31.1286 49.1279 31.3477 49.5178 31.7376C49.9078 32.1276 50.1269 32.6565 50.1269 33.208C50.1269 33.7595 49.9078 34.2884 49.5178 34.6783C49.1279 35.0683 48.599 35.2874 48.0475 35.2874H37.6505C37.099 35.2874 36.5701 35.0683 36.1802 34.6783C35.7902 34.2884 35.5711 33.7595 35.5711 33.208C35.5711 32.6565 35.7902 32.1276 36.1802 31.7376C36.5701 31.3477 37.099 31.1286 37.6505 31.1286ZM23.0948 22.811H48.0475C48.599 22.811 49.1279 23.0301 49.5178 23.4201C49.9078 23.81 50.1269 24.3389 50.1269 24.8904C50.1269 25.4419 49.9078 25.9708 49.5178 26.3608C49.1279 26.7507 48.599 26.9698 48.0475 26.9698H23.0948C22.5433 26.9698 22.0144 26.7507 21.6244 26.3608C21.2345 25.9708 21.0154 25.4419 21.0154 24.8904C21.0154 24.3389 21.2345 23.81 21.6244 23.4201C22.0144 23.0301 22.5433 22.811 23.0948 22.811Z" fill="white"/>
</svg>
